<svg xmlns="http://www.w3.org/2000/svg" viewBox="0 0 200 200" role="img" aria-label="Male cartoon avatar">
  <defs>
    <linearGradient id="bg" x1="0" y1="0" x2="1" y2="1">
      <stop offset="0%" stop-color="#e8f6ef"/>
      <stop offset="100%" stop-color="#d0e8db"/>
    </linearGradient>
  </defs>
  <circle cx="100" cy="100" r="100" fill="url(#bg)"/>
  <ellipse cx="100" cy="170" rx="54" ry="30" fill="#0f766e"/>
  <circle cx="100" cy="98" r="46" fill="#e8bc95"/>
  <path d="M58 86c10-32 28-48 42-48s32 16 42 48c-10-12-24-18-42-18s-32 6-42 18z" fill="#78350f"/>
  <ellipse cx="82" cy="100" rx="5" ry="6" fill="#451a03"/>
  <ellipse cx="118" cy="100" rx="5" ry="6" fill="#451a03"/>
  <path d="M78 96h12M110 96h12" stroke="#451a03" stroke-width="2.5" stroke-linecap="round"/>
  <path d="M90 118c6 7 14 7 20 0" fill="none" stroke="#b45309" stroke-width="3" stroke-linecap="round"/>
  <circle cx="72" cy="109" r="7" fill="#f0a090" opacity=".4"/>
  <circle cx="128" cy="109" r="7" fill="#f0a090" opacity=".4"/>
</svg>
